<svg xmlns="http://www.w3.org/2000/svg" width="120" height="120" viewBox="0 0 120 120" fill="none"><script xmlns=""/>
    <path fill-rule="evenodd" clip-rule="evenodd" d="M66.7332 42.5005C68.6212 42.513 80.3619 42.7754 89.2158 45.143C94.6472 46.5954 98.3699 48.4282 101.519 49.9771C103.679 51.0396 105.575 51.9694 107.556 52.5659C110.526 53.4598 112.829 53.9693 114.465 54.103C114.33 55.7126 114.169 57.1044 113.982 58.2844C113.808 59.5121 113.807 60.7607 113.982 62.0303C114.96 62.5256 115.429 62.8134 115.834 63.2997C116.232 63.7786 116.474 64.1852 116.499 64.5373L116.499 70.7161C116.517 71.6702 116.32 72.4733 115.889 73.1188C115.465 73.7523 114.819 74.2274 113.963 74.5593C111.363 75.051 107.841 75.6406 103.396 76.3281C103.464 75.8914 103.5 75.4477 103.5 75C103.5 72.0534 102.429 69.4836 100.757 67.6259C98.9943 65.6671 96.5634 64.5 94 64.5C90.983 64.5 88.3611 65.6217 86.4914 67.4914C84.6217 69.3611 83.5 71.9829 83.5 75C83.5 75.5068 83.5456 76.0084 83.6339 76.5006L36.2997 76.5008C36.431 75.8543 36.5 75.1852 36.5 74.5C36.5 71.7385 35.3807 69.2385 33.5711 67.4289C31.7614 65.6192 29.2614 64.5 26.5 64.5C23.7386 64.5 21.2386 65.6192 19.4289 67.4289C17.6193 69.2385 16.5 71.7385 16.5 74.5C16.5 75.1852 16.569 75.8543 16.7003 76.5008L8.70487 76.5002C7.37808 76.5002 6.23935 76.18 5.29337 75.5256C4.39683 74.9055 3.79316 74.1753 3.5 73.3229V66.2207C3.52827 65.8811 3.65658 65.5651 3.87855 65.2706C4.13455 64.931 4.51654 64.6104 5.0165 64.3005C5.32745 62.3428 5.88248 60.9876 6.91824 59.8341C7.96699 58.6662 9.38842 57.8956 11.1788 57.5071L31.9747 52.7689C36.9695 48.4409 42.8477 45.6494 49.6077 44.3916C59.1009 42.6253 65.1864 42.5081 66.7332 42.5005Z" fill="#EEEEEE" stroke="#363636"/>
    <path opacity="0.1" fill-rule="evenodd" clip-rule="evenodd" d="M60.6206 42.3317C59.1918 42.8147 57.5849 43.3375 55.8001 43.9001C37.2872 49.7355 28.2016 56.8426 28.5433 65.2215C27.8863 65.0762 27.202 65 26.5 65C21.2533 65 17 69.2533 17 74.5C17 75.3656 17.1157 76.204 17.3326 77.0009L8.70487 77.0002C7.26576 77.0002 6.03378 76.6458 5.00893 75.9369C3.98408 75.228 3.31444 74.3836 3 73.4038V66.2014C3.03219 65.7615 3.19195 65.3509 3.47927 64.9698C3.76658 64.5886 4.19119 64.2238 4.75308 63.8755C4.83375 62.2001 5.43146 60.7416 6.54621 59.5001C7.66096 58.2587 9.16813 57.4318 11.0677 57.0196L31.7421 52.3091C36.7834 47.9699 42.7081 45.1669 49.5163 43.9001C53.869 43.0903 57.509 42.6256 60.329 42.3589L60.6206 42.3317Z" fill="#363636"/>
    <path d="M17 72H4V73H17V72Z" fill="#363636"/>
    <path d="M84 72H36V73H84V72Z" fill="#363636"/>
    <path d="M116 72H103V73H116V72Z" fill="#363636"/>
    <path d="M60 86C88.1665 86 111 85.5523 111 85C111 84.4477 88.1665 84 60 84C31.8335 84 9 84.4477 9 85C9 85.5523 31.8335 86 60 86Z" fill="#DCDCDC"/>
    <path d="M93.5 84.5C99.0228 84.5 103.5 80.0228 103.5 74.5C103.5 68.9772 99.0228 64.5 93.5 64.5C87.9772 64.5 83.5 68.9772 83.5 74.5C83.5 80.0228 87.9772 84.5 93.5 84.5Z" fill="#F8F8F8" stroke="#363636"/>
    <path d="M93.5 81.5C97.366 81.5 100.5 78.366 100.5 74.5C100.5 70.634 97.366 67.5 93.5 67.5C89.634 67.5 86.5 70.634 86.5 74.5C86.5 78.366 89.634 81.5 93.5 81.5Z" stroke="#363636"/>
    <path d="M26.5 84.5C32.0228 84.5 36.5 80.0228 36.5 74.5C36.5 68.9772 32.0228 64.5 26.5 64.5C20.9772 64.5 16.5 68.9772 16.5 74.5C16.5 80.0228 20.9772 84.5 26.5 84.5Z" fill="#F8F8F8" stroke="#363636"/>
    <path d="M26.5 81.5C30.366 81.5 33.5 78.366 33.5 74.5C33.5 70.634 30.366 67.5 26.5 67.5C22.634 67.5 19.5 70.634 19.5 74.5C19.5 78.366 22.634 81.5 26.5 81.5Z" stroke="#363636"/>
    <path opacity="0.1" fill-rule="evenodd" clip-rule="evenodd" d="M22 72.5C22 76.6421 25.3579 80 29.5 80C30.39 80 31.2439 79.845 32.036 79.5604C30.6642 81.0597 28.6919 82 26.5 82C22.3579 82 19 78.6421 19 74.5C19 71.2479 21.0698 68.4793 23.964 67.4396C22.7444 68.7734 22 70.5498 22 72.5Z" fill="#363636"/>
    <path opacity="0.1" fill-rule="evenodd" clip-rule="evenodd" d="M89 72.5C89 76.6421 92.3579 80 96.5 80C97.39 80 98.2439 79.845 99.036 79.5604C97.6642 81.0597 95.6919 82 93.5 82C89.3579 82 86 78.6421 86 74.5C86 71.2479 88.0698 68.4793 90.964 67.4396C89.7444 68.7734 89 70.5498 89 72.5Z" fill="#363636"/>
    <path fill-rule="evenodd" clip-rule="evenodd" d="M114.415 54.5279L114.41 54.5809C114.318 55.4968 114.174 56.8554 113.98 58.657C113.957 59.6731 114.095 60.941 114.395 62.5036H111.24C110.749 61.9602 110.544 61.2549 110.602 60.3985C110.673 59.3534 111.119 58.1019 111.915 56.6413C112.677 55.2631 113.495 54.4898 114.456 54.5281L114.415 54.5279Z" fill="white" stroke="#363636"/>
    <path fill-rule="evenodd" clip-rule="evenodd" d="M65.5081 46.5036C80.2642 46.2662 91.0796 48.993 97.9239 54.7512L33.1328 59.3652C38.9927 50.9932 49.9422 47.0079 65.5081 46.5036Z" fill="#F8F8F8" stroke="#363636"/>
    <path d="M61 47H60V57.5H61V47Z" fill="#363636"/>
    <path d="M87 49H86V56H87V49Z" fill="#363636"/>
    <path fill-rule="evenodd" clip-rule="evenodd" d="M13.8319 56.9325C13.9675 56.9069 14.1007 56.9387 14.2064 57.0109C14.4332 57.4239 14.4241 57.5196 14.39 57.6071L11.6888 64.5H5.12109C5.36475 62.2389 6.16092 60.4866 7.54605 59.2548C8.60238 58.2774 10.7095 57.5216 13.8319 56.9325Z" fill="url(#paint0_linear_536_337)" stroke="#363636"/>
    <path d="M114.5 38H83.5C83.2239 38 83 38.2239 83 38.5C83 38.7761 83.2239 39 83.5 39H114.5C114.776 39 115 38.7761 115 38.5C115 38.2239 114.776 38 114.5 38Z" fill="#EEEEEE"/>
    <path d="M20.5 48H10.5C10.2239 48 10 48.2239 10 48.5C10 48.7761 10.2239 49 10.5 49H20.5C20.7761 49 21 48.7761 21 48.5C21 48.2239 20.7761 48 20.5 48Z" fill="#EEEEEE"/>
    <path d="M103.5 92H85.5C85.2239 92 85 92.2239 85 92.5C85 92.7761 85.2239 93 85.5 93H103.5C103.776 93 104 92.7761 104 92.5C104 92.2239 103.776 92 103.5 92Z" fill="#EEEEEE"/>
    <path d="M18.5 92H9.5C9.22386 92 9 92.2239 9 92.5C9 92.7761 9.22386 93 9.5 93H18.5C18.7761 93 19 92.7761 19 92.5C19 92.2239 18.7761 92 18.5 92Z" fill="#EEEEEE"/>
    <path d="M50.5 30H32.5C32.2239 30 32 30.2239 32 30.5C32 30.7761 32.2239 31 32.5 31H50.5C50.7761 31 51 30.7761 51 30.5C51 30.2239 50.7761 30 50.5 30Z" fill="#EEEEEE"/>
    <defs>
    <linearGradient id="paint0_linear_536_337" x1="9.76467" y1="68.2881" x2="17.1865" y2="59.1902" gradientUnits="userSpaceOnUse">
    <stop stop-color="#FF7100"/>
    <stop offset="1" stop-color="#F6DA35"/>
    </linearGradient>
    </defs>
    <script xmlns=""/></svg>